<svg id="Слой_1" data-name="Слой 1" xmlns="http://www.w3.org/2000/svg" viewBox="0 0 104 28"><defs><style>.cls-1{fill:#5c7e62;}.cls-2{font-size:10px;font-family:Verdana-Bold, Verdana;font-weight:700;letter-spacing:0.14em;}.cls-2,.cls-3{fill:#fff;}</style></defs><title>logoМонтажная область 1 копия 10</title><rect id="_Прямоугольник_" data-name="&lt;Прямоугольник&gt;" class="cls-1" y="0.07" width="104" height="28"/><g id="_Группа_" data-name="&lt;Группа&gt;"><text class="cls-2" transform="translate(22.67 18.5)">FLATPICKR</text></g><g id="_Группа_2" data-name="&lt;Группа&gt;"><path id="_Составной_контур_" data-name="&lt;Составной контур&gt;" class="cls-3" d="M9.35,13.09V21h1.91v-8H15V11.54H11.22a12.64,12.64,0,0,1,.1-1.41,1.66,1.66,0,0,1,1.55-1.51,5.16,5.16,0,0,1,1.36,0,12.46,12.46,0,0,1,1.41.33l.41-1.36-.19-.08a7.29,7.29,0,0,0-3.37-.42,3.33,3.33,0,0,0-3.11,3.27c0,.39,0,.78,0,1.19l-2.67.1v1.45Z"/><path id="_Контур_" data-name="&lt;Контур&gt;" class="cls-3" d="M9.35,13.09H6.7V11.64l2.67-.1c0-.41,0-.8,0-1.19a3.33,3.33,0,0,1,3.11-3.27,7.29,7.29,0,0,1,3.37.42l.19.08-.41,1.36a12.46,12.46,0,0,0-1.41-.33,5.16,5.16,0,0,0-1.36,0,1.66,1.66,0,0,0-1.55,1.51,12.64,12.64,0,0,0-.1,1.41H15v1.54H11.26v8H9.35Z"/></g></svg>