<svg id="Слой_1" data-name="Слой 1" xmlns="http://www.w3.org/2000/svg" viewBox="0 0 104 28"><defs><style>.cls-1{fill:#640434;}.cls-2{fill:#fff;}</style></defs><title>logoМонтажная область 1 копия 3</title><rect id="_Прямоугольник_" data-name="&lt;Прямоугольник&gt;" class="cls-1" y="0.07" width="104" height="28"/><g id="_Группа_" data-name="&lt;Группа&gt;"><path id="_Составной_контур_" data-name="&lt;Составной контур&gt;" d="M11.48,7.07H9.65a.36.36,0,0,0-.15.1A9.11,9.11,0,0,0,8.21,8.78a9.83,9.83,0,0,0-1.4,6.79A9.35,9.35,0,0,0,9.49,21a.36.36,0,0,0,.26.11h1.73a9.53,9.53,0,0,1-2.93-7A9.5,9.5,0,0,1,11.48,7.07Zm7.27,14,0,0h1.73a.27.27,0,0,0,.17-.08,9.58,9.58,0,0,0,1.57-2.07,9.85,9.85,0,0,0,1.16-6.11,9.36,9.36,0,0,0-2.73-5.63.35.35,0,0,0-.22-.1H18.88l-.15,0a9.47,9.47,0,0,1,2.91,7A9.48,9.48,0,0,1,18.75,21Zm-5.15-5.9h1.19s.08-.05.12-.09l4.87-4.86.09-.11-.82-.83-4.2,4.22V8H13.6Z"/><path id="_Контур_" data-name="&lt;Контур&gt;" class="cls-2" d="M11.48,7.07a9.5,9.5,0,0,0-2.93,7,9.53,9.53,0,0,0,2.93,7H9.75A.36.36,0,0,1,9.49,21a9.35,9.35,0,0,1-2.68-5.38,9.83,9.83,0,0,1,1.4-6.79A9.11,9.11,0,0,1,9.5,7.17a.36.36,0,0,1,.15-.1Z"/><path id="_Контур_2" data-name="&lt;Контур&gt;" class="cls-2" d="M18.75,21a9.48,9.48,0,0,0,2.89-7,9.47,9.47,0,0,0-2.91-7l.15,0h1.59a.35.35,0,0,1,.22.1,9.36,9.36,0,0,1,2.73,5.63,9.85,9.85,0,0,1-1.16,6.11A9.58,9.58,0,0,1,20.69,21a.27.27,0,0,1-.17.08H18.79Z"/><path id="_Контур_3" data-name="&lt;Контур&gt;" class="cls-2" d="M13.6,15.14V8h1.25v5.45l4.2-4.22.82.83-.09.11-4.87,4.86s-.08.09-.12.09Z"/></g><path class="cls-2" d="M38.46,14.87A3.54,3.54,0,0,1,38,16.69a3.31,3.31,0,0,1-1.17,1.23,3.47,3.47,0,0,1-1.17.45,7.28,7.28,0,0,1-1.5.13H31.59V11.23h2.64a6.83,6.83,0,0,1,1.53.15,3.65,3.65,0,0,1,1.09.42A3.35,3.35,0,0,1,38,13,3.7,3.7,0,0,1,38.46,14.87Zm-1.93,0a2.6,2.6,0,0,0-.27-1.23,1.82,1.82,0,0,0-.82-.8,2.14,2.14,0,0,0-.59-.19,5.23,5.23,0,0,0-.91-.05h-.47v4.55h.47a5.62,5.62,0,0,0,1-.06,2,2,0,0,0,.61-.23,1.73,1.73,0,0,0,.76-.78A2.75,2.75,0,0,0,36.53,14.86Z"/><path class="cls-2" d="M48,18.5H46.08L45.57,17H42.88l-.51,1.47H40.48l2.69-7.27h2.16Zm-2.89-2.8-.89-2.61-.9,2.61Z"/><path class="cls-2" d="M56.15,12.64H53.88V18.5H52V12.64H49.73V11.23h6.42Z"/><path class="cls-2" d="M63.93,18.5H58.67V11.23h5.26v1.41H60.54v1.25h3.15V15.3H60.54v1.79h3.39Z"/><path class="cls-2" d="M70.24,16H66.52V14.56h3.72Z"/><path class="cls-2" d="M78.32,12.64H75V14h3.1v1.4H75V18.5H73.11V11.23h5.21Z"/><path class="cls-2" d="M87.62,18.5H85.81l-3.08-5v5H81V11.23h2.24l2.65,4.16V11.23h1.72Z"/><path class="cls-2" d="M96.7,16.21A2.1,2.1,0,0,1,95.79,18a4.08,4.08,0,0,1-2.48.67,6.66,6.66,0,0,1-1.57-.16,7.74,7.74,0,0,1-1.26-.4V16.33h.21A4.31,4.31,0,0,0,92,17a4.12,4.12,0,0,0,1.38.25l.45,0a1.66,1.66,0,0,0,.46-.1,1.1,1.1,0,0,0,.35-.22.56.56,0,0,0-.06-.8,1.52,1.52,0,0,0-.6-.27l-.86-.18a6.74,6.74,0,0,1-.86-.22,2.72,2.72,0,0,1-1.32-.81,2,2,0,0,1,.51-2.92,3.92,3.92,0,0,1,2.34-.64,6.77,6.77,0,0,1,1.42.14,6.49,6.49,0,0,1,1.21.35v1.67h-.2a3.94,3.94,0,0,0-1.08-.59,3.64,3.64,0,0,0-1.3-.23,3.44,3.44,0,0,0-.46,0,1.66,1.66,0,0,0-.45.12.83.83,0,0,0-.33.22.49.49,0,0,0-.14.34.52.52,0,0,0,.22.44,2.51,2.51,0,0,0,.83.28l.77.16a8.2,8.2,0,0,1,.8.22A2.71,2.71,0,0,1,96.3,15,1.86,1.86,0,0,1,96.7,16.21Z"/></svg>