<svg id="Слой_1" data-name="Слой 1" xmlns="http://www.w3.org/2000/svg" viewBox="0 0 87 28"><defs><style>.cls-1{fill:#51c7c4;}.cls-2{fill:#fff;}</style></defs><title>logoМонтажная область 1</title><rect id="_Прямоугольник_" data-name="&lt;Прямоугольник&gt;" class="cls-1" y="0.07" width="87" height="28"/><path id="_Составной_контур_" data-name="&lt;Составной контур&gt;" class="cls-2" d="M13.7,7.07a7,7,0,1,0,7,7A7,7,0,0,0,13.7,7.07Zm3.17,6.39-.58.54c-.66.62-1.32,1.24-2,1.85l-2.73,2.56c-.06.05-.12.1-.19,0s0-.13,0-.19c.35-.49.71-1,1-1.46.45-.65.94-1.27,1.39-1.91l0,0c0-.06.08-.1.05-.18s-.1-.06-.17-.06H10.61s-.12,0-.14,0a.17.17,0,0,1,0-.18c.42-.38.78-.82,1.21-1.2s.63-.63.95-.94l2.53-2.51c.06-.06.11-.13.2-.06s0,.13,0,.2L14,12.51l-.27.5c-.09.16-.06.23.13.23h3c.07,0,.12,0,.15.08S16.91,13.42,16.87,13.46Z"/><path class="cls-2" d="M30.88,18.64a4.54,4.54,0,0,1-1.5-.24,3.21,3.21,0,0,1-1.18-.71,3.34,3.34,0,0,1-.76-1.18,5,5,0,0,1,0-3.21,3.3,3.3,0,0,1,.75-1.2,3.36,3.36,0,0,1,1.17-.75,4.48,4.48,0,0,1,1.54-.26,5.16,5.16,0,0,1,.82.05,5.5,5.5,0,0,1,.68.13,5.94,5.94,0,0,1,.6.21l.46.21v1.77h-.21l-.35-.28a3.82,3.82,0,0,0-.47-.32,3.4,3.4,0,0,0-.58-.26,2.09,2.09,0,0,0-.67-.11,2.36,2.36,0,0,0-.75.13,1.78,1.78,0,0,0-.66.41,2,2,0,0,0-.46.74,3,3,0,0,0-.18,1.11A3,3,0,0,0,29.31,16a2,2,0,0,0,.49.72,1.83,1.83,0,0,0,.66.38,2.31,2.31,0,0,0,.72.12,2.25,2.25,0,0,0,.68-.11,2.65,2.65,0,0,0,.62-.27,4.91,4.91,0,0,0,.44-.31,4,4,0,0,0,.34-.27h.19V18l-.52.23a4,4,0,0,1-.52.18c-.24.07-.46.12-.67.16A6.19,6.19,0,0,1,30.88,18.64Z"/><path class="cls-2" d="M42.75,18.5H40.87V15.3H38.11v3.2H36.23V11.23h1.88v2.66h2.76V11.23h1.88Z"/><path class="cls-2" d="M52.72,18.5H50.79L50.28,17H47.59l-.51,1.47H45.19l2.69-7.27H50Zm-2.89-2.8-.89-2.61L48,15.7Z"/><path class="cls-2" d="M62,18.5H59.65l-2.17-2.91-.44.54V18.5H55.17V11.23H57v3.29l2.6-3.29h2.17L59,14.59Z"/><path class="cls-2" d="M71.28,18.5H69l-2-2.67h-.87V18.5H64.28V11.23h3.14a7.14,7.14,0,0,1,1.11.07,2.47,2.47,0,0,1,.87.32,1.87,1.87,0,0,1,.65.63,1.85,1.85,0,0,1,.24,1,2.16,2.16,0,0,1-.37,1.31,2.71,2.71,0,0,1-1.07.84Zm-2.92-5a.86.86,0,0,0-.12-.47.71.71,0,0,0-.38-.31,1.87,1.87,0,0,0-.45-.1H66.14v2h.58a5.11,5.11,0,0,0,.75,0,1.05,1.05,0,0,0,.51-.2.85.85,0,0,0,.28-.33A1,1,0,0,0,68.36,13.46Z"/><path class="cls-2" d="M80.22,18.5H78.28L77.78,17H75.09l-.51,1.47H72.69l2.69-7.27h2.15Zm-2.89-2.8-.9-2.61-.89,2.61Z"/></svg>