<svg id="Слой_1" data-name="Слой 1" xmlns="http://www.w3.org/2000/svg" viewBox="0 0 70 28"><defs><style>.cls-1{fill:#5a29e4;}.cls-2{fill:#fff;}</style></defs><title>logoМонтажная область 1 копия 2</title><rect id="_Прямоугольник_" data-name="&lt;Прямоугольник&gt;" class="cls-1" y="0.07" width="70" height="28"/><g id="_Группа_" data-name="&lt;Группа&gt;"><path id="_Составной_контур_" data-name="&lt;Составной контур&gt;" class="cls-2" d="M11.27,19.23l3.58-2.94H12.67c-.2,0-.2,0-.2-.21v-9l-1.05.73a.29.29,0,0,0-.15.28V19.23ZM6.7,11.63H8.79c.22,0,.22,0,.22.22v9.22l1.08-.87a.28.28,0,0,0,.12-.25V8.77Z"/><path id="_Контур_" data-name="&lt;Контур&gt;" class="cls-2" d="M11.27,19.23V8.08a.29.29,0,0,1,.15-.28l1.05-.73v9c0,.21,0,.21.2.21h2.18Z"/><path id="_Контур_2" data-name="&lt;Контур&gt;" class="cls-2" d="M6.7,11.63l3.51-2.86V20a.28.28,0,0,1-.12.25L9,21.07V11.85c0-.22,0-.22-.22-.22Z"/></g><path class="cls-2" d="M29.31,18.5H27.38L26.87,17H24.18l-.51,1.47H21.78l2.69-7.27h2.16Zm-2.89-2.8-.9-2.61-.89,2.61Z"/><path class="cls-2" d="M38.35,18.5H36.18l-1.56-2.39L33,18.5H31l2.58-3.66L31,11.23h2.17l1.51,2.26,1.55-2.26h2.08l-2.54,3.53Z"/><path class="cls-2" d="M44.72,18.5H40.47V17.21h1.19V12.52H40.47V11.23h4.25v1.29H43.53v4.69h1.19Z"/><path class="cls-2" d="M54.72,14.87a3.79,3.79,0,0,1-1,2.76,4.23,4.23,0,0,1-5.51,0,3.79,3.79,0,0,1-1-2.76,3.8,3.8,0,0,1,1-2.77,4.22,4.22,0,0,1,5.5,0A3.77,3.77,0,0,1,54.72,14.87Zm-2.48,1.84a2,2,0,0,0,.4-.79,3.68,3.68,0,0,0,.14-1.06,3.57,3.57,0,0,0-.16-1.11,2.15,2.15,0,0,0-.39-.74,1.54,1.54,0,0,0-.57-.43,1.79,1.79,0,0,0-.68-.13,1.67,1.67,0,0,0-.67.13,1.44,1.44,0,0,0-.58.42,2,2,0,0,0-.4.75,3.75,3.75,0,0,0-.15,1.12,3.52,3.52,0,0,0,.15,1.1,2,2,0,0,0,.39.75,1.46,1.46,0,0,0,.57.42,1.77,1.77,0,0,0,1.38,0A1.57,1.57,0,0,0,52.24,16.71Z"/><path class="cls-2" d="M63.38,16.21A2.08,2.08,0,0,1,62.46,18a4,4,0,0,1-2.47.67,6.6,6.6,0,0,1-1.57-.16,7.74,7.74,0,0,1-1.26-.4V16.33h.2a4.49,4.49,0,0,0,1.31.71,4.12,4.12,0,0,0,1.38.25l.45,0a1.59,1.59,0,0,0,.45-.1,1.16,1.16,0,0,0,.36-.22.53.53,0,0,0,.14-.39.51.51,0,0,0-.21-.41,1.41,1.41,0,0,0-.59-.27l-.87-.18a6.58,6.58,0,0,1-.85-.22,2.67,2.67,0,0,1-1.32-.81,2,2,0,0,1,.5-2.92,4,4,0,0,1,2.35-.64,6.68,6.68,0,0,1,1.41.14,6.39,6.39,0,0,1,1.22.35v1.67h-.2a4.26,4.26,0,0,0-1.08-.59,3.76,3.76,0,0,0-1.77-.2,1.69,1.69,0,0,0-.44.12.83.83,0,0,0-.33.22.49.49,0,0,0-.14.34.52.52,0,0,0,.22.44,2.42,2.42,0,0,0,.83.28L61,14a7.35,7.35,0,0,1,.79.22A2.7,2.7,0,0,1,63,15,1.86,1.86,0,0,1,63.38,16.21Z"/></svg>