<svg id="Слой_1" data-name="Слой 1" xmlns="http://www.w3.org/2000/svg" viewBox="0 0 144 28"><defs><style>.cls-1{fill:#774bbb;}.cls-2,.cls-3{fill:#fff;}.cls-3{font-size:10px;font-family:Verdana-Bold, Verdana;font-weight:700;letter-spacing:0.14em;}</style></defs><title>logoМонтажная область 1 копия 12</title><rect id="_Прямоугольник_" data-name="&lt;Прямоугольник&gt;" class="cls-1" width="144" height="28"/><g id="_Группа_" data-name="&lt;Группа&gt;"><path id="_Контур_" data-name="&lt;Контур&gt;" class="cls-2" d="M10.38,12.44a6.61,6.61,0,0,0,.84,3.32.25.25,0,0,0,.27.16,1,1,0,0,1,1,.74,1,1,0,0,1-1.6,1,1,1,0,0,1-.29-1.16.31.31,0,0,0,0-.28,7.42,7.42,0,0,1-1-4.11A5.5,5.5,0,0,1,10.8,8.68a3.6,3.6,0,0,1,2.62-1.33,3.29,3.29,0,0,1,2.89,1.5,5.49,5.49,0,0,1,1,2.73c0,.1,0,.17-.13.11h0l-.71-.24c-.06-.24-.08-.41-.15-.63a4.77,4.77,0,0,0-.76-1.61,2.29,2.29,0,0,0-2.65-.87,3.27,3.27,0,0,0-2.2,2.29A5.35,5.35,0,0,0,10.38,12.44Z"/><path id="_Контур_2" data-name="&lt;Контур&gt;" class="cls-2" d="M14.64,20.09l.72-.59c.08-.07.13,0,.2,0a4,4,0,0,0,2.2.26,2.53,2.53,0,0,0,1.88-3.53,5.19,5.19,0,0,0-2.57-2.65,6.62,6.62,0,0,0-3.24-.74.28.28,0,0,0-.26.15,1,1,0,0,1-1.19.4,1,1,0,0,1-.65-1.05,1,1,0,0,1,.93-.88.91.91,0,0,1,.85.38.33.33,0,0,0,.31.14,7.39,7.39,0,0,1,4.94,1.69,5.2,5.2,0,0,1,1.81,2.69,3.18,3.18,0,0,1-2.08,4,4.87,4.87,0,0,1-3.8-.22Z"/><path id="_Контур_3" data-name="&lt;Контур&gt;" class="cls-2" d="M10.26,19.76A5.33,5.33,0,0,0,12.91,19a6.45,6.45,0,0,0,2.58-2.47.27.27,0,0,0,0-.33,1,1,0,0,1,0-1.18,1,1,0,0,1,1.13-.33,1,1,0,0,1,.66,1,1,1,0,0,1-.72.93.38.38,0,0,0-.24.19A7,7,0,0,1,11,20.58a4.19,4.19,0,0,1-2.62-.42,2.93,2.93,0,0,1-1.63-2.34,4.33,4.33,0,0,1,1.91-4.16c.1-.08.14,0,.15.07v0c.06.24.07.45.13.69a6.76,6.76,0,0,1-.46.53,3.32,3.32,0,0,0-1,2.24,2.5,2.5,0,0,0,2.16,2.5A3,3,0,0,0,10.26,19.76Z"/></g><g id="_Группа_2" data-name="&lt;Группа&gt;"><text class="cls-3" transform="translate(27.67 18.43)">REDUX PERSIST</text></g></svg>