<svg id="Слой_1" data-name="Слой 1" xmlns="http://www.w3.org/2000/svg" viewBox="0 0 83 28"><defs><style>.cls-1{fill:#0051cd;}.cls-2{fill:#fff;}</style></defs><title>logoМонтажная область 1 копия 5</title><rect id="_Прямоугольник_" data-name="&lt;Прямоугольник&gt;" class="cls-1" y="0.07" width="83" height="28"/><path class="cls-2" d="M29.8,12.64H26.46V14h3.1v1.4h-3.1V18.5H24.59V11.23H29.8Z"/><path class="cls-2" d="M39.57,14.87a3.76,3.76,0,0,1-1,2.76,3.66,3.66,0,0,1-2.75,1,3.66,3.66,0,0,1-2.75-1,3.8,3.8,0,0,1-1-2.76,3.81,3.81,0,0,1,1-2.77,3.66,3.66,0,0,1,2.75-1,3.69,3.69,0,0,1,2.75,1A3.81,3.81,0,0,1,39.57,14.87Zm-2.49,1.84a2.05,2.05,0,0,0,.41-.79,3.7,3.7,0,0,0,.13-1.06,3.59,3.59,0,0,0-.15-1.11,2,2,0,0,0-.4-.74,1.39,1.39,0,0,0-.57-.43,1.75,1.75,0,0,0-.68-.13,1.7,1.7,0,0,0-.67.13,1.51,1.51,0,0,0-.58.42,2,2,0,0,0-.39.75A3.44,3.44,0,0,0,34,14.87a3.52,3.52,0,0,0,.15,1.1,2.2,2.2,0,0,0,.39.75,1.62,1.62,0,0,0,.57.42,1.77,1.77,0,0,0,1.38,0A1.49,1.49,0,0,0,37.08,16.71Z"/><path class="cls-2" d="M49.4,18.5H47.11l-2-2.67h-.87V18.5H42.4V11.23h3.14a7.14,7.14,0,0,1,1.11.07,2.47,2.47,0,0,1,.87.32,1.87,1.87,0,0,1,.65.63,1.85,1.85,0,0,1,.24,1A2.16,2.16,0,0,1,48,14.54a2.71,2.71,0,0,1-1.07.84Zm-2.92-5a.86.86,0,0,0-.12-.47.71.71,0,0,0-.38-.31,1.87,1.87,0,0,0-.45-.1H44.26v2h.58a5.11,5.11,0,0,0,.75,0,1.16,1.16,0,0,0,.51-.2.85.85,0,0,0,.28-.33A1,1,0,0,0,46.48,13.46Z"/><path class="cls-2" d="M59.24,18.5H57.38V13.63L56,16.79H54.74l-1.35-3.16V18.5H51.62V11.23H53.8l1.63,3.65,1.64-3.65h2.17Z"/><path class="cls-2" d="M66.43,18.5H62.17V17.21h1.19V12.52H62.17V11.23h4.26v1.29H65.24v4.69h1.19Z"/><path class="cls-2" d="M76.14,18.5h-2.3l-2.17-2.91-.44.54V18.5H69.36V11.23h1.87v3.29l2.6-3.29H76l-2.84,3.36Z"/><g id="_Группа_" data-name="&lt;Группа&gt;"><polygon id="_Контур_" data-name="&lt;Контур&gt;" class="cls-2" points="6.81 10.75 8.42 11.65 14.81 8 13.17 7.07 6.81 10.75"/><polygon id="_Контур_2" data-name="&lt;Контур&gt;" class="cls-2" points="8.68 20.16 10.29 21.07 16.62 17.48 14.98 16.54 8.68 20.16"/><polygon id="_Контур_3" data-name="&lt;Контур&gt;" class="cls-2" points="6.7 10.92 8.31 11.82 8.31 13.69 6.7 12.75 6.7 10.92"/><polygon id="_Контур_4" data-name="&lt;Контур&gt;" class="cls-2" points="6.7 13.01 8.31 13.97 8.31 15.78 6.7 14.85 6.7 13.01"/><polygon id="_Контур_5" data-name="&lt;Контур&gt;" class="cls-2" points="6.7 15.1 8.31 16.06 8.31 18.02 6.7 17.08 6.7 15.1"/><polygon id="_Контур_6" data-name="&lt;Контур&gt;" class="cls-2" points="15.1 10.27 16.71 11.17 16.71 13.09 15.1 12.16 15.1 10.27"/><polygon id="_Контур_7" data-name="&lt;Контур&gt;" class="cls-2" points="15.1 12.36 16.71 13.32 16.71 15.19 15.1 14.25 15.1 12.36"/><polygon id="_Контур_8" data-name="&lt;Контур&gt;" class="cls-2" points="15.1 14.54 16.71 15.5 16.71 17.28 15.1 16.35 15.1 14.54"/><polygon id="_Контур_9" data-name="&lt;Контур&gt;" class="cls-2" points="8.53 11.85 14.87 8.2 14.87 10.01 8.53 13.69 8.53 11.85"/><polygon id="_Контур_10" data-name="&lt;Контур&gt;" class="cls-2" points="8.53 13.97 14.87 10.32 14.87 12.13 8.53 15.81 8.53 13.97"/><polygon id="_Контур_11" data-name="&lt;Контур&gt;" class="cls-2" points="8.53 16.06 14.87 12.41 14.87 14.22 8.53 17.9 8.53 16.06"/><polygon id="_Контур_12" data-name="&lt;Контур&gt;" class="cls-2" points="8.53 18.18 14.87 14.54 14.87 16.35 8.53 20.02 8.53 18.18"/></g></svg>