<svg id="Слой_1" data-name="Слой 1" xmlns="http://www.w3.org/2000/svg" viewBox="0 0 144 28"><defs><style>.cls-1{fill:#774bbb;}.cls-2{fill:#fff;}</style></defs><title>logoМонтажная область 1 копия</title><rect id="_Прямоугольник_" data-name="&lt;Прямоугольник&gt;" class="cls-1" y="0.07" width="144" height="28"/><g id="_Группа_" data-name="&lt;Группа&gt;"><path id="_Контур_" data-name="&lt;Контур&gt;" class="cls-2" d="M10.38,12.51a6.61,6.61,0,0,0,.84,3.32.27.27,0,0,0,.27.16,1,1,0,0,1,1,.74,1,1,0,1,1-1.89-.12.31.31,0,0,0,0-.28,7.42,7.42,0,0,1-1-4.11A5.55,5.55,0,0,1,10.8,8.74a3.62,3.62,0,0,1,2.62-1.32,3.29,3.29,0,0,1,2.89,1.5,5.49,5.49,0,0,1,1,2.73c0,.1,0,.17-.13.11h0c-.23-.07-.53-.19-.71-.24-.06-.24-.08-.41-.15-.64a4.81,4.81,0,0,0-.76-1.6,2.29,2.29,0,0,0-2.65-.87,3.27,3.27,0,0,0-2.2,2.29A5.35,5.35,0,0,0,10.38,12.51Z"/><path id="_Контур_2" data-name="&lt;Контур&gt;" class="cls-2" d="M14.64,20.16l.72-.59c.08-.07.13,0,.2,0a4,4,0,0,0,2.2.26,2.53,2.53,0,0,0,1.88-3.53,5.19,5.19,0,0,0-2.57-2.65,6.51,6.51,0,0,0-3.24-.74.28.28,0,0,0-.26.15,1,1,0,0,1-1.19.4,1,1,0,0,1-.65-1.05,1,1,0,0,1,.93-.88.91.91,0,0,1,.85.38.33.33,0,0,0,.31.14,7.39,7.39,0,0,1,4.94,1.69,5.18,5.18,0,0,1,1.81,2.68,3.19,3.19,0,0,1-2.08,4,4.87,4.87,0,0,1-3.8-.22Z"/><path id="_Контур_3" data-name="&lt;Контур&gt;" class="cls-2" d="M10.26,19.83a5.33,5.33,0,0,0,2.65-.72,6.45,6.45,0,0,0,2.58-2.47.27.27,0,0,0,0-.33,1,1,0,0,1,0-1.18,1,1,0,0,1,1.13-.33,1,1,0,0,1,.66,1,1,1,0,0,1-.72.93.38.38,0,0,0-.24.19A7,7,0,0,1,11,20.65a4.26,4.26,0,0,1-2.62-.42,2.93,2.93,0,0,1-1.63-2.35,4.32,4.32,0,0,1,1.91-4.15c.1-.08.14,0,.15.07v0c.06.24.07.45.13.69a6.76,6.76,0,0,1-.46.53,3.32,3.32,0,0,0-1,2.24,2.5,2.5,0,0,0,2.16,2.5A3.91,3.91,0,0,0,10.26,19.83Z"/></g><path class="cls-2" d="M35.6,18.5H33.31l-2-2.67h-.87V18.5H28.59V11.23h3.15a7.14,7.14,0,0,1,1.11.07,2.47,2.47,0,0,1,.87.32,1.87,1.87,0,0,1,.65.63,1.85,1.85,0,0,1,.24,1,2.16,2.16,0,0,1-.37,1.31,2.79,2.79,0,0,1-1.07.84Zm-2.93-5a1,1,0,0,0-.11-.47.73.73,0,0,0-.39-.31,1.68,1.68,0,0,0-.44-.1H30.46v2H31a5.21,5.21,0,0,0,.75,0,1.16,1.16,0,0,0,.51-.2,1,1,0,0,0,.28-.33A1.16,1.16,0,0,0,32.67,13.46Z"/><path class="cls-2" d="M43.08,18.5H37.82V11.23h5.26v1.41h-3.4v1.25h3.15V15.3H39.68v1.79h3.4Z"/><path class="cls-2" d="M52.92,14.87a3.55,3.55,0,0,1-.47,1.82,3.31,3.31,0,0,1-1.17,1.23,3.34,3.34,0,0,1-1.16.45,7.45,7.45,0,0,1-1.51.13H46.05V11.23h2.63a6.86,6.86,0,0,1,1.54.15,3.58,3.58,0,0,1,1.08.42A3.27,3.27,0,0,1,52.48,13,3.7,3.7,0,0,1,52.92,14.87Zm-1.94,0a2.72,2.72,0,0,0-.26-1.23,1.84,1.84,0,0,0-.83-.8,2.14,2.14,0,0,0-.59-.19,5.17,5.17,0,0,0-.9-.05h-.48v4.55h.48a5.78,5.78,0,0,0,1-.06,2.06,2.06,0,0,0,.61-.23,1.76,1.76,0,0,0,.75-.78A2.75,2.75,0,0,0,51,14.86Z"/><path class="cls-2" d="M62.12,15.87a2.57,2.57,0,0,1-.83,2.06,4.41,4.41,0,0,1-4.83,0,2.59,2.59,0,0,1-.81-2.06V11.23h1.88v4.54a1.68,1.68,0,0,0,.32,1.12,1.27,1.27,0,0,0,1,.37,1.33,1.33,0,0,0,1-.35,1.71,1.71,0,0,0,.32-1.14V11.23h1.89Z"/><path class="cls-2" d="M71.86,18.5H69.69l-1.56-2.39-1.6,2.39H64.46L67,14.84l-2.53-3.61h2.17l1.51,2.26,1.55-2.26h2.08l-2.54,3.53Z"/><path class="cls-2" d="M84.81,12.64H82.54V18.5H80.67V12.64H78.4V11.23h6.41Z"/><path class="cls-2" d="M94.41,14.87a3.76,3.76,0,0,1-1,2.76,4.22,4.22,0,0,1-5.5,0,3.79,3.79,0,0,1-1-2.76,3.8,3.8,0,0,1,1-2.77,4.22,4.22,0,0,1,5.5,0A3.77,3.77,0,0,1,94.41,14.87Zm-2.49,1.84a2.05,2.05,0,0,0,.41-.79,3.7,3.7,0,0,0,.13-1.06,3.59,3.59,0,0,0-.15-1.11,2.15,2.15,0,0,0-.39-.74,1.49,1.49,0,0,0-.58-.43,1.82,1.82,0,0,0-1.35,0,1.41,1.41,0,0,0-.57.42,1.9,1.9,0,0,0-.4.75,3.44,3.44,0,0,0-.16,1.12A3.52,3.52,0,0,0,89,16a2.05,2.05,0,0,0,.4.75,1.46,1.46,0,0,0,.57.42,1.75,1.75,0,0,0,1.37,0A1.49,1.49,0,0,0,91.92,16.71Z"/><path class="cls-2" d="M104.31,14.87a3.76,3.76,0,0,1-1,2.76,4.22,4.22,0,0,1-5.5,0,3.79,3.79,0,0,1-1-2.76,3.8,3.8,0,0,1,1-2.77,4.22,4.22,0,0,1,5.5,0A3.77,3.77,0,0,1,104.31,14.87Zm-2.48,1.84a2.18,2.18,0,0,0,.4-.79,3.7,3.7,0,0,0,.13-1.06,3.59,3.59,0,0,0-.15-1.11,2.15,2.15,0,0,0-.39-.74,1.49,1.49,0,0,0-.58-.43,1.82,1.82,0,0,0-1.35,0,1.41,1.41,0,0,0-.57.42,1.9,1.9,0,0,0-.4.75,3.44,3.44,0,0,0-.16,1.12,3.52,3.52,0,0,0,.15,1.1,2.05,2.05,0,0,0,.4.75,1.46,1.46,0,0,0,.57.42,1.75,1.75,0,0,0,1.37,0A1.6,1.6,0,0,0,101.83,16.71Z"/><path class="cls-2" d="M112.39,18.5h-5.25V11.23H109v5.86h3.37Z"/><path class="cls-2" d="M121.7,18.5h-2.3l-2.18-2.91-.43.54V18.5h-1.88V11.23h1.88v3.29l2.6-3.29h2.17l-2.84,3.36Z"/><path class="cls-2" d="M128,18.5H123.7V17.21h1.19V12.52H123.7V11.23H128v1.29h-1.19v4.69H128Z"/><path class="cls-2" d="M136.57,12.64H134.3V18.5h-1.87V12.64h-2.27V11.23h6.41Z"/></svg>