<svg id="Слой_1" data-name="Слой 1" xmlns="http://www.w3.org/2000/svg" viewBox="0 0 79 28"><defs><style>.cls-1{fill:#6cbab0;}.cls-2{fill:#fff;}</style></defs><title>logoМонтажная область 1 копия 6</title><rect id="_Прямоугольник_" data-name="&lt;Прямоугольник&gt;" class="cls-1" y="0.07" width="79" height="28"/><path class="cls-2" d="M33.84,18.5H28.59V11.23h1.88v5.86h3.37Z"/><path class="cls-2" d="M42.73,15.87a2.56,2.56,0,0,1-.82,2.06,3.54,3.54,0,0,1-2.41.72,3.57,3.57,0,0,1-2.42-.72,2.59,2.59,0,0,1-.82-2.06V11.23h1.89v4.54a1.63,1.63,0,0,0,.32,1.12,1.27,1.27,0,0,0,1,.37,1.3,1.3,0,0,0,1-.35,1.65,1.65,0,0,0,.33-1.14V11.23h1.88Z"/><path class="cls-2" d="M52.48,18.5H50.31l-1.57-2.39L47.15,18.5H45.08l2.57-3.66-2.52-3.61h2.16l1.52,2.26,1.55-2.26h2.08L49.9,14.76Z"/><path class="cls-2" d="M62,14.87a3.79,3.79,0,0,1-1,2.76,4.23,4.23,0,0,1-5.51,0,3.79,3.79,0,0,1-1-2.76,3.8,3.8,0,0,1,1-2.77,4.22,4.22,0,0,1,5.5,0A3.77,3.77,0,0,1,62,14.87Zm-2.48,1.84a2,2,0,0,0,.4-.79A3.7,3.7,0,0,0,60,14.86a3.59,3.59,0,0,0-.15-1.11A2.15,2.15,0,0,0,59.5,13a1.49,1.49,0,0,0-.58-.43,1.7,1.7,0,0,0-.67-.13,1.67,1.67,0,0,0-.67.13A1.44,1.44,0,0,0,57,13a1.9,1.9,0,0,0-.4.75,3.75,3.75,0,0,0-.15,1.12,3.87,3.87,0,0,0,.14,1.1,2.21,2.21,0,0,0,.4.75,1.46,1.46,0,0,0,.57.42,1.77,1.77,0,0,0,1.38,0A1.65,1.65,0,0,0,59.51,16.71Z"/><path class="cls-2" d="M71.44,18.5H69.63l-3.09-5v5H64.82V11.23h2.25l2.65,4.16V11.23h1.72Z"/><g id="_Группа_" data-name="&lt;Группа&gt;"><path id="_Составной_контур_" data-name="&lt;Составной контур&gt;" class="cls-2" d="M13.7,7.07a7,7,0,1,0,7,7A7,7,0,0,0,13.7,7.07Zm0,13.37a6.37,6.37,0,1,1,6.36-6.37A6.37,6.37,0,0,1,13.7,20.44Z"/><path id="_Контур_" data-name="&lt;Контур&gt;" class="cls-2" d="M18.43,15.88,14.1,14.09V14A.42.42,0,0,0,14,13.7l-.08-4.42a.28.28,0,0,0-.55,0l.09,4.35a.41.41,0,0,0-.16.16H10.9a.27.27,0,1,0,0,.54h2.43a.45.45,0,0,0,.71-.08l4.32,1.79h0a.09.09,0,0,0,0-.18Z"/></g></svg>