<svg id="Слой_1" data-name="Слой 1" xmlns="http://www.w3.org/2000/svg" viewBox="0 0 176 28"><defs><style>.cls-1{fill:#f98a29;}.cls-2{font-size:10px;font-family:Verdana-Bold, Verdana;font-weight:700;letter-spacing:0.14em;}.cls-2,.cls-3{fill:#fff;}</style></defs><title>logoМонтажная область 1 копия 11</title><rect id="_Прямоугольник_" data-name="&lt;Прямоугольник&gt;" class="cls-1" y="0.07" width="176" height="28"/><g id="_Группа_" data-name="&lt;Группа&gt;"><text class="cls-2" transform="translate(50.67 18.5)">LOADER SPINNER</text></g><g id="_Группа_2" data-name="&lt;Группа&gt;"><path id="_Контур_" data-name="&lt;Контур&gt;" class="cls-3" d="M33.73,10.86a1.07,1.07,0,0,1,.62.49c0,.44-.24.92-.07,1.45a1.11,1.11,0,0,0,.5-.91,5.16,5.16,0,0,1,.29-1c.19,0,.27.12.39.18a.39.39,0,0,1,.15.56,2.25,2.25,0,0,0-.2.84,1.85,1.85,0,0,1-.51,1.1.5.5,0,0,1-.51.2,1.56,1.56,0,0,1-.63-.73c-.38.16-.21.74-.65.85-.45-.43-.51-.68-.27-1.19Z"/><path id="_Контур_2" data-name="&lt;Контур&gt;" class="cls-3" d="M36.69,13c-.33.23-.21.71-.61.87a.91.91,0,0,1-.44-.84l1-2.14a.87.87,0,0,1,.63.42c.07.46-.27.95-.06,1.47.34-.13.4-.46.48-.75A6.8,6.8,0,0,1,38,11a2.24,2.24,0,0,1,.11-.22c.23.16.5.24.56.58a4.83,4.83,0,0,0-.29,1.22,1.52,1.52,0,0,1-.45.9.53.53,0,0,1-.55.23A1.83,1.83,0,0,1,36.69,13Z"/><path id="_Контур_3" data-name="&lt;Контур&gt;" class="cls-3" d="M40.91,12.32c-.39.48-.87.37-1.3.4a.46.46,0,0,0-.17.45A4.21,4.21,0,0,0,40.71,13a.76.76,0,0,1,.38.32.4.4,0,0,1-.24.32,2.9,2.9,0,0,1-1.79.17c-.35-.06-.49-.59-.32-1,.11-.27.24-.52.35-.74l-.2-.7A5.9,5.9,0,0,1,41,10.86a.81.81,0,0,1,.42.32c-.37.6-1.12.35-1.6.7.23.13.23.13.69.12C40.65,12,40.72,12.22,40.91,12.32Z"/><path id="_Контур_4" data-name="&lt;Контур&gt;" class="cls-3" d="M11.91,9.58a1,1,0,0,1-1,.48c-.45,0-.94.2-1.34-.21l-.12-.56c.08-.38.33-.66.43-1,0-.21-.2-.41-.11-.73a6.14,6.14,0,0,1,2-.46.85.85,0,0,1,.35.26.23.23,0,0,1-.05.21,1,1,0,0,1-.57.26,4.14,4.14,0,0,0-1,.28c.24.24.5.08.77.14l.37.32c-.33.45-.79.38-1.25.37-.16.1-.2.27-.27.46a4.73,4.73,0,0,0,1.37-.14A.92.92,0,0,1,11.91,9.58Z"/><path id="_Контур_5" data-name="&lt;Контур&gt;" class="cls-3" d="M20,12l.39.33c-.33.48-.82.38-1.26.39a.67.67,0,0,0-.24.42A3.37,3.37,0,0,0,20.22,13c.18,0,.26.21.38.32a.48.48,0,0,1-.33.37,3.47,3.47,0,0,1-1.66.14c-.39-.06-.56-.6-.36-1.08.1-.23.22-.45.32-.65s-.19-.47-.11-.78a5.82,5.82,0,0,1,2-.48.79.79,0,0,1,.42.27.66.66,0,0,1-.06.2.89.89,0,0,1-.57.26,4.57,4.57,0,0,0-.94.27C19.5,12,19.5,12,20,12Z"/><path id="_Контур_6" data-name="&lt;Контур&gt;" class="cls-3" d="M26.45,11.77c.5.09.64.48.85.8,0,.82-.71,1.37-1.69,1.29a.52.52,0,0,1-.09-.57,1.85,1.85,0,0,0,1.3-.64c-.39-.45-1.06-.14-1.44-.52a.83.83,0,0,1,0-.64,4,4,0,0,1,2.37-.65,1.28,1.28,0,0,1,.34.56c-.08.21-.24.17-.41.18A2.12,2.12,0,0,0,26.45,11.77Z"/><path id="_Контур_7" data-name="&lt;Контур&gt;" class="cls-3" d="M17.24,9.39a.93.93,0,0,1,.15.13,1,1,0,0,1,.09.17c0,.22-.2.26-.28.35A3.2,3.2,0,0,1,16,10a1.16,1.16,0,0,1-.53-2,7.12,7.12,0,0,1,1.57-1,.85.85,0,0,1,.52.4.44.44,0,0,1-.41.48,3.06,3.06,0,0,0-1,.49c-.23.15-.48.32-.46.69C16.2,9.45,16.71,9.28,17.24,9.39Z"/><path id="_Контур_8" data-name="&lt;Контур&gt;" class="cls-3" d="M18.84,7.94c-.27-.07-.56.06-.84,0-.2-.25-.19-.26-.19-.62,1,0,1.92-.27,2.89-.24.15.14.34.24.31.53-.39.25-.91,0-1.37.28-.2.57-.53,1.12-.69,1.75,0,.14.18.19.19.33a.29.29,0,0,1-.26.23c-.43-.22-.53-.38-.49-.83a3.59,3.59,0,0,1,.33-1C18.76,8.19,18.85,8.09,18.84,7.94Z"/><path id="_Контур_9" data-name="&lt;Контур&gt;" class="cls-3" d="M31.68,11.54c-.23,0-.37.09-.52,0A.52.52,0,0,1,31,11a5.1,5.1,0,0,1,1.82-.13c.17.1.35.19.35.44a1.74,1.74,0,0,1-.84.2c-.19.51-.26,1-.5,1.56.17.14.44.16.52.41a.36.36,0,0,1-.34.28,11.29,11.29,0,0,0-1.38.14.27.27,0,0,1-.22-.22,2.41,2.41,0,0,0-.08-.25c.21-.21.49-.15.73-.23A7.32,7.32,0,0,0,31.68,11.54Z"/><path id="_Контур_10" data-name="&lt;Контур&gt;" class="cls-3" d="M9.12,13.32a.37.37,0,0,1,.06.28c-.06.09-.14.16-.22.14-.67-.1-1.31.23-1.94.14a1.1,1.1,0,0,1-.25-1.19c.2-.61.42-1.21.64-1.84.21,0,.37.1.52.14a.43.43,0,0,1,.06.52l-.44,1.16a.59.59,0,0,0,0,.44C8,13.08,8.56,12.84,9.12,13.32Z"/><path id="_Контур_11" data-name="&lt;Контур&gt;" class="cls-3" d="M18,20.51h.14v0Z"/><path id="_Контур_12" data-name="&lt;Контур&gt;" class="cls-3" d="M8.15,20.57a.28.28,0,0,1,.24-.22.73.73,0,0,1,.38.25C8.57,20.51,8.35,20.71,8.15,20.57Z"/><path id="_Составной_контур_" data-name="&lt;Составной контур&gt;" class="cls-3" d="M23.47,18.69c-.61-.19-1.23-.3-1.85-.45a25.14,25.14,0,0,0-4.49-.46,34.28,34.28,0,0,0-3.65.09,44.51,44.51,0,0,0-5.4.81,1.72,1.72,0,0,0-1.19.76,4.56,4.56,0,0,0,.71,1c-.12.07,0,.15,0,.27s.28.14.46.12a.59.59,0,0,1,.44.2c.59-.21,1.19,0,1.75-.13.07,0-.13-.19.07-.19s0,.2.1.22c.4-.09.76.06,1.1-.07s.75,0,1.11-.13.7.05,1-.22a.31.31,0,0,0,.53,0l.23.14a8.23,8.23,0,0,1,1.21-.1c.09-.06.08-.15.06-.24a.13.13,0,0,0,.17.05c.1,0,.21,0,.25,0s0,.13.07.18.28-.1.45,0a.31.31,0,0,0,.45-.13c.15.17.35.13.52.16a.53.53,0,0,1,.42-.28c.22.12.53,0,.65.29l.46-.09a1.41,1.41,0,0,0,1,.17c.08-.08-.13-.08,0-.17h.15c.1.09.24,0,.35.07l1.15.14c.19.1.11.28.32.28.1-.19.38-.08.56-.27-.13-.22,0-.4.2-.39a.82.82,0,0,0,.55-.22A2.65,2.65,0,0,0,23.47,18.69ZM15.2,20.44c.05-.11.16-.1.33-.2C15.44,20.53,15.33,20.51,15.2,20.44Z"/><path id="_Составной_контур_2" data-name="&lt;Составной контур&gt;" class="cls-3" d="M9.24,9.59c-.4-.15-.89-.09-1.24-.45.19-.2.46-.19.68-.31s.5-.43.4-.74A1.48,1.48,0,0,0,8.23,7c-.56.09-.6.81-1.18.84C7,8.6,6.49,9.3,6.87,10.06c.44.06.44-.27.56-.48.8.55,1.32.7,1.85.53A.49.49,0,0,0,9.24,9.59ZM8.12,7.9a.29.29,0,0,1,.25.27.82.82,0,0,1-.65.24A1,1,0,0,1,8.12,7.9Z"/><path id="_Составной_контур_3" data-name="&lt;Составной контур&gt;" class="cls-3" d="M23.4,13.37a2.56,2.56,0,0,1-1.21-.43c.19-.2.46-.2.68-.32a.62.62,0,0,0,.35-.88,1.55,1.55,0,0,0-.78-.92c-.58.09-.61.81-1.22.84,0,.73-.55,1.43-.16,2.19.44.07.44-.28.56-.47a2.47,2.47,0,0,0,1.83.57C23.55,13.71,23.56,13.53,23.4,13.37Zm-1.06-1.69a.35.35,0,0,1,.22.29c-.15.2-.39.22-.64.28A1,1,0,0,1,22.34,11.68Z"/><path id="_Составной_контур_4" data-name="&lt;Составной контур&gt;" class="cls-3" d="M43.9,13.37a2.33,2.33,0,0,1-1.25-.47c.43-.2.91-.23,1.14-.72A1.51,1.51,0,0,0,43,10.83c-.62,0-.62.86-1.25.83,0,.75-.54,1.44-.16,2.19.44.08.43-.27.54-.47a2.74,2.74,0,0,0,1.84.59C44,13.71,44.05,13.53,43.9,13.37Zm-1.51-1.14a1.05,1.05,0,0,1,.43-.55c.18,0,.23.16.27.31A1.08,1.08,0,0,1,42.39,12.23Z"/><path id="_Составной_контур_5" data-name="&lt;Составной контур&gt;" class="cls-3" d="M11.8,11.17c-.15-.14-.24-.33-.5-.41a6.48,6.48,0,0,0-1.56,1.39,1.46,1.46,0,0,0-.33,1,.78.78,0,0,0,.69.76,2.88,2.88,0,0,0,1.73-.32.74.74,0,0,0,.47-.66C12.33,12.26,11.68,11.83,11.8,11.17Zm-1.7,1.91a1.32,1.32,0,0,1,1.21-1.14,3.27,3.27,0,0,1,.35.7A1.37,1.37,0,0,1,10.1,13.08Z"/><path id="_Составной_контур_6" data-name="&lt;Составной контур&gt;" class="cls-3" d="M14.52,8.51a7.55,7.55,0,0,1-.25-1.18c-.16-.21-.36-.17-.54-.26-.2.24-.36.55-.74.54-.36.69-.67,1.38-1,2.05.07.17.11.34.31.43a.44.44,0,0,0,.44-.41.69.69,0,0,1,.28-.47c0,.08.07.17.23.23s.47-.17.76,0c-.05.16-.18.19-.27.28.1.11.12.28.26.37.55,0,.7-.22.69-.9C14.82,9,15,9,15,8.82,14.92,8.64,14.72,8.6,14.52,8.51Zm-1.27.26a1.21,1.21,0,0,1,.42-.58c.14.17.1.35.13.51C13.62,8.82,13.45,8.77,13.25,8.77Z"/><path id="_Составной_контур_7" data-name="&lt;Составной контур&gt;" class="cls-3" d="M15,12.29a5.66,5.66,0,0,1-.24-1.17c-.16-.2-.37-.18-.54-.25a1.21,1.21,0,0,1-.79.57l-.92,2c.08.2.13.36.31.42.58,0,.33-.7.73-.86.23.5.7,0,1,.21-.05.17-.21.17-.27.28.12.11.12.31.33.39.58-.05.66-.47.62-.93.1-.14.29-.19.3-.36S15.11,12.39,15,12.29Zm-1.25.26a1,1,0,0,1,.36-.54c.14,0,.13.12.14.2a2.26,2.26,0,0,1,0,.29A.85.85,0,0,1,13.7,12.55Z"/><path id="_Составной_контур_8" data-name="&lt;Составной контур&gt;" class="cls-3" d="M30.5,11.6c-.14-.51-.35-.72-.78-.77a1.1,1.1,0,0,0-1.24.55,2.74,2.74,0,0,1-.41.67.54.54,0,0,0-.12.59,1,1,0,0,1,0,.63c0,.23-.07.47.2.64l.34-.06a2.07,2.07,0,0,0,.24-.92,5,5,0,0,0,1.36-.39A.71.71,0,0,0,30.5,11.6ZM29,12.09c0-.5.29-.6.89-.32A2,2,0,0,1,29,12.09Z"/><path id="_Составной_контур_9" data-name="&lt;Составной контур&gt;" class="cls-3" d="M17.66,11.78a2.41,2.41,0,0,0-.24-.21,4.48,4.48,0,0,0-1.5-.74,2.7,2.7,0,0,0-.05,1,1.33,1.33,0,0,1,0,.79c-.07.22-.12.45-.18.67a1.06,1.06,0,0,0,.29.61,5.73,5.73,0,0,0,1.6-.76A.81.81,0,0,0,17.66,11.78ZM16.39,13a9.81,9.81,0,0,0,0-1.33,1.45,1.45,0,0,1,1.1.67A2.05,2.05,0,0,1,16.39,13Z"/></g></svg>