<svg id="Слой_1" data-name="Слой 1" xmlns="http://www.w3.org/2000/svg" viewBox="0 0 100 28"><defs><style>.cls-1{fill:#00b462;}.cls-2{fill:#fff;}.cls-3{fill:#1e1e1e;}.cls-4{fill:#fefefe;}.cls-5{fill:#00b362;}</style></defs><title>logoМонтажная область 1 копия 9</title><rect id="_Прямоугольник_" data-name="&lt;Прямоугольник&gt;" class="cls-1" y="0.07" width="100" height="28"/><path class="cls-2" d="M35.21,18.5H33.4l-3.09-5v5H28.59V11.23h2.25l2.65,4.16V11.23h1.72Z"/><path class="cls-2" d="M45.53,14.87a3.79,3.79,0,0,1-1,2.76,4.23,4.23,0,0,1-5.51,0,3.79,3.79,0,0,1-1-2.76,3.8,3.8,0,0,1,1-2.77,4.22,4.22,0,0,1,5.5,0A3.77,3.77,0,0,1,45.53,14.87Zm-2.48,1.84a2.18,2.18,0,0,0,.4-.79,3.7,3.7,0,0,0,.13-1.06,3.59,3.59,0,0,0-.15-1.11A2.15,2.15,0,0,0,43,13a1.49,1.49,0,0,0-.58-.43,1.82,1.82,0,0,0-1.35,0,1.41,1.41,0,0,0-.57.42,1.9,1.9,0,0,0-.4.75A3.73,3.73,0,0,0,40,14.87a3.52,3.52,0,0,0,.15,1.1,2.05,2.05,0,0,0,.4.75,1.46,1.46,0,0,0,.57.42,1.81,1.81,0,0,0,.69.14,1.72,1.72,0,0,0,.68-.14A1.6,1.6,0,0,0,43.05,16.71Z"/><path class="cls-2" d="M54.05,12.64H51.78V18.5H49.91V12.64H47.63V11.23h6.42Z"/><path class="cls-2" d="M60.51,18.5H56.25V17.21h1.19V12.52H56.25V11.23h4.26v1.29H59.32v4.69h1.19Z"/><path class="cls-2" d="M68.65,12.64H65.3V14h3.1v1.4H65.3V18.5H63.44V11.23h5.21Z"/><path class="cls-2" d="M76.59,18.5H71.34V11.23h1.88v5.86h3.37Z"/><path class="cls-2" d="M83,18.5H78.79V17.21H80V12.52H78.79V11.23H83v1.29H81.85v4.69H83Z"/><path class="cls-2" d="M92.56,18.5H90.39l-1.56-2.39-1.6,2.39H85.16l2.58-3.66-2.52-3.61h2.16l1.51,2.26,1.56-2.26h2.08L90,14.76Z"/><g id="_Группа_" data-name="&lt;Группа&gt;"><path id="_Контур_" data-name="&lt;Контур&gt;" class="cls-3" d="M21.53,12.14v4.1a1.1,1.1,0,0,1-1.12,1.16l-3.59.29a.68.68,0,0,0-.56.42c-.36.75-.74,1.5-1.1,2.26a1.09,1.09,0,0,1-1,.66.84.84,0,0,1-.85-.49c-.34-.63-.69-1.26-1-1.9a.83.83,0,0,0-.89-.51l-3.3.27H8c-1,.08-1.31-.23-1.31-1.22V9.35A1.13,1.13,0,0,1,7.88,8.06l4.46-.36,6.85-.56L20.47,7a.9.9,0,0,1,1.06,1Z"/><path id="_Контур_2" data-name="&lt;Контур&gt;" class="cls-4" d="M13.63,13.57v2.06a.52.52,0,0,1-.16.44.41.41,0,0,1-.41.06.33.33,0,0,1-.21-.3,1.93,1.93,0,0,1,0-.24V11.93a2.2,2.2,0,0,0-.2-1,1.24,1.24,0,0,0-1.13-.74,5.14,5.14,0,0,0-1.11.07,1.72,1.72,0,0,0-1.48,1.84c0,1.29,0,2.58,0,3.87a.7.7,0,0,1-.05.35.39.39,0,0,1-.45.22.34.34,0,0,1-.29-.36c0-1.42,0-2.85,0-4.27a2.42,2.42,0,0,1,2.32-2.43c.31,0,.62-.06.92-.07a2,2,0,0,1,2.22,2.07c0,.7,0,1.4,0,2.1Z"/><path id="_Контур_3" data-name="&lt;Контур&gt;" class="cls-4" d="M14.69,15.56a.54.54,0,0,1,.16-.35l1.94-2.59a.24.24,0,0,0,0-.36c-.67-.78-1.33-1.56-2-2.35a.4.4,0,0,1,.15-.67.38.38,0,0,1,.48.15L17.2,11.5c.22.25.22.25.4,0l1.76-2.4a.52.52,0,0,1,.43-.27.31.31,0,0,1,.3.44,1.4,1.4,0,0,1-.16.26l-1.88,2.59c-.12.16-.14.26,0,.42.64.75,1.27,1.51,1.9,2.26a.4.4,0,0,1,.14.41.39.39,0,0,1-.29.3.41.41,0,0,1-.44-.17c-.59-.71-1.19-1.41-1.78-2.11-.22-.26-.17-.23-.36,0l-1.79,2.4a.54.54,0,0,1-.3.24A.34.34,0,0,1,14.69,15.56Z"/><path id="_Контур_4" data-name="&lt;Контур&gt;" class="cls-5" d="M10.12,15.85a.81.81,0,0,1,.82-.83.67.67,0,0,1,.7.67.82.82,0,0,1-.81.85A.67.67,0,0,1,10.12,15.85Z"/></g></svg>