<svg id="Слой_1" data-name="Слой 1" xmlns="http://www.w3.org/2000/svg" viewBox="0 0 87 28"><defs><style>.cls-1{fill:#282828;}.cls-2{fill:#ecd53f;}.cls-3{fill:#fff;}</style></defs><title>logo</title><rect id="_Прямоугольник_" data-name="&lt;Прямоугольник&gt;" class="cls-1" width="87" height="28"/><g id="_Группа_" data-name="&lt;Группа&gt;"><rect id="_Прямоугольник_2" data-name="&lt;Прямоугольник&gt;" class="cls-2" x="6.7" y="7.07" width="14" height="14"/><g id="_Группа_2" data-name="&lt;Группа&gt;"><path id="_Составной_контур_" data-name="&lt;Составной контур&gt;" d="M9.82,19.61H8.7V18.42H9.82Z"/><path id="_Составной_контур_2" data-name="&lt;Составной контур&gt;" d="M12.76,19.61H10.58v-3h2.18v.59H11.35v.52h1.31v.58H11.35V19h1.41Z"/><path id="_Составной_контур_3" data-name="&lt;Составной контур&gt;" d="M16.15,19.61H15.4l-1.28-2.07v2.07h-.71v-3h.93l1.1,1.73V16.59h.71Z"/><path id="_Составной_контур_4" data-name="&lt;Составной контур&gt;" d="M19.65,16.59l-1.1,3h-.87l-1.1-3h.82l.72,2.12.73-2.12Z"/></g></g><path class="cls-3" d="M34.46,14.87A3.54,3.54,0,0,1,34,16.69a3.31,3.31,0,0,1-1.17,1.23,3.47,3.47,0,0,1-1.17.45,7.28,7.28,0,0,1-1.5.13H27.59V11.23h2.64a6.83,6.83,0,0,1,1.53.15,3.65,3.65,0,0,1,1.09.42A3.35,3.35,0,0,1,34,13,3.7,3.7,0,0,1,34.46,14.87Zm-1.93,0a2.6,2.6,0,0,0-.27-1.23,1.82,1.82,0,0,0-.82-.8,2.14,2.14,0,0,0-.59-.19,5.23,5.23,0,0,0-.91-.05h-.47v4.55h.47a5.62,5.62,0,0,0,1-.06,2,2,0,0,0,.61-.23,1.73,1.73,0,0,0,.76-.78A2.75,2.75,0,0,0,32.53,14.86Z"/><path class="cls-3" d="M44.37,14.87a3.8,3.8,0,0,1-1,2.76,3.66,3.66,0,0,1-2.75,1,3.66,3.66,0,0,1-2.75-1,3.76,3.76,0,0,1-1-2.76,3.77,3.77,0,0,1,1-2.77,3.66,3.66,0,0,1,2.75-1,3.65,3.65,0,0,1,2.74,1A3.77,3.77,0,0,1,44.37,14.87Zm-2.49,1.84a2.2,2.2,0,0,0,.41-.79,4.09,4.09,0,0,0,.13-1.06,3.59,3.59,0,0,0-.15-1.11,2.34,2.34,0,0,0-.4-.74,1.54,1.54,0,0,0-.57-.43,1.79,1.79,0,0,0-.68-.13,1.67,1.67,0,0,0-.67.13,1.51,1.51,0,0,0-.58.42,2,2,0,0,0-.4.75,3.75,3.75,0,0,0-.15,1.12A3.52,3.52,0,0,0,39,16a2.2,2.2,0,0,0,.39.75,1.46,1.46,0,0,0,.57.42,1.77,1.77,0,0,0,1.38,0A1.49,1.49,0,0,0,41.88,16.71Z"/><path class="cls-3" d="M52.88,12.64H50.61V18.5H48.74V12.64H46.47V11.23h6.41Z"/><path class="cls-3" d="M60.67,18.5H55.41V11.23h5.26v1.41H57.28v1.25h3.15V15.3H57.28v1.79h3.39Z"/><path class="cls-3" d="M70.25,18.5h-1.8l-3.09-5v5H63.64V11.23h2.24l2.66,4.16V11.23h1.71Z"/><path class="cls-3" d="M80.1,11.23,77.45,18.5h-2.1L72.7,11.23h2l1.76,5.1,1.75-5.1Z"/></svg>