<?xml version="1.0" encoding="utf-8"?>
<!-- Generator: Adobe Illustrator 22.1.0, SVG Export Plug-In . SVG Version: 6.00 Build 0)  -->
<svg version="1.1" id="Слой_1" xmlns="http://www.w3.org/2000/svg" xmlns:xlink="http://www.w3.org/1999/xlink" x="0px" y="0px"
	 viewBox="0 0 144 28" style="enable-background:new 0 0 144 28;" xml:space="preserve">
<style type="text/css">
	.st0{fill:#0051CD;}
	.st1{fill:#51C7C4;}
	.st2{fill:#FFFFFF;}
	.st3{fill:#774BBB;}
	.st4{fill:#5A29E4;}
	.st5{fill:#640434;}
	.st6{fill:#282828;}
	.st7{fill:#ECD53F;}
</style>
<rect id="XMLID_93_" y="0.1" class="st3" width="144" height="28"/>
<g id="XMLID_56_">
	<path id="XMLID_91_" class="st2" d="M10.4,12.5c0,1.2,0.3,2.3,0.8,3.3c0.1,0.1,0.1,0.2,0.3,0.2c0.5,0,0.8,0.3,1,0.7
		c0.1,0.4,0,0.8-0.4,1.1c-0.4,0.2-0.8,0.2-1.2,0c-0.3-0.3-0.5-0.7-0.3-1.2c0-0.1,0-0.2,0-0.3c-0.7-1.3-1.1-2.6-1-4.1
		c0.1-1.3,0.4-2.5,1.3-3.5c0.7-0.8,1.6-1.3,2.6-1.3c1.2-0.1,2.2,0.5,2.9,1.5c0.6,0.8,0.9,1.7,1,2.7c0,0.1,0,0.2-0.1,0.1c0,0,0,0,0,0
		c-0.2-0.1-0.5-0.2-0.7-0.2c-0.1-0.2-0.1-0.4-0.1-0.6c-0.2-0.6-0.4-1.1-0.8-1.6c-0.7-0.9-1.6-1.2-2.7-0.9c-1.2,0.3-1.8,1.2-2.2,2.3
		C10.4,11.3,10.4,11.9,10.4,12.5z"/>
	<path id="XMLID_90_" class="st2" d="M14.6,20.2c0.2-0.2,0.5-0.4,0.7-0.6c0.1-0.1,0.1,0,0.2,0c0.7,0.3,1.4,0.4,2.2,0.3
		c1.7-0.3,2.5-2,1.9-3.5c-0.5-1.2-1.4-2.1-2.6-2.6c-1-0.5-2.1-0.8-3.2-0.7c-0.1,0-0.2,0-0.3,0.1c-0.3,0.4-0.7,0.6-1.2,0.4
		c-0.4-0.2-0.7-0.6-0.6-1c0.1-0.5,0.4-0.9,0.9-0.9c0.3,0,0.6,0.1,0.8,0.4c0.1,0.1,0.2,0.1,0.3,0.1c1.8,0,3.5,0.5,4.9,1.7
		c0.9,0.7,1.5,1.6,1.8,2.7c0.5,1.8-0.3,3.3-2.1,4C17.2,20.9,15.9,20.8,14.6,20.2C14.7,20.2,14.7,20.2,14.6,20.2z"/>
	<path id="XMLID_57_" class="st2" d="M10.3,19.8c1,0,1.9-0.3,2.6-0.7c1.1-0.6,2-1.4,2.6-2.5c0.1-0.1,0.1-0.2,0-0.3
		c-0.3-0.4-0.2-0.8,0-1.2c0.3-0.3,0.7-0.5,1.1-0.3c0.4,0.1,0.7,0.5,0.7,1c0,0.4-0.3,0.8-0.7,0.9c-0.1,0-0.2,0.1-0.2,0.2
		c-1.1,2.2-3,3.4-5.3,3.8c-0.9,0.1-1.8,0-2.6-0.4c-1-0.5-1.5-1.3-1.6-2.3c-0.2-1.8,0.6-3.1,1.9-4.2c0.1-0.1,0.1,0,0.2,0.1
		c0,0,0,0,0,0c0.1,0.2,0.1,0.5,0.1,0.7c-0.2,0.2-0.3,0.3-0.5,0.5c-0.6,0.6-1,1.3-1,2.2c0,1.3,0.9,2.3,2.2,2.5
		C9.9,19.8,10.1,19.8,10.3,19.8z"/>
</g>
<g id="XMLID_424_">
	<g>
		<path class="st2" d="M35.6,18.5h-2.3l-2-2.7h-0.9v2.7h-1.9v-7.3h3.1c0.4,0,0.8,0,1.1,0.1s0.6,0.2,0.9,0.3c0.3,0.2,0.5,0.4,0.7,0.6
			c0.2,0.3,0.2,0.6,0.2,1c0,0.5-0.1,1-0.4,1.3s-0.6,0.6-1.1,0.8L35.6,18.5z M32.7,13.5c0-0.2,0-0.3-0.1-0.5s-0.2-0.2-0.4-0.3
			c-0.1-0.1-0.3-0.1-0.4-0.1c-0.2,0-0.4,0-0.6,0h-0.7v2H31c0.3,0,0.6,0,0.8,0s0.4-0.1,0.5-0.2c0.1-0.1,0.2-0.2,0.3-0.3
			C32.6,13.8,32.7,13.7,32.7,13.5z"/>
		<path class="st2" d="M43.1,18.5h-5.3v-7.3h5.3v1.4h-3.4v1.3h3.1v1.4h-3.1v1.8h3.4V18.5z"/>
		<path class="st2" d="M52.9,14.9c0,0.7-0.2,1.3-0.5,1.8c-0.3,0.5-0.7,0.9-1.2,1.2c-0.4,0.2-0.7,0.4-1.2,0.4
			c-0.4,0.1-0.9,0.1-1.5,0.1H46v-7.3h2.6c0.6,0,1.1,0,1.5,0.1c0.4,0.1,0.8,0.2,1.1,0.4c0.5,0.3,0.9,0.7,1.2,1.2
			C52.8,13.6,52.9,14.2,52.9,14.9z M51,14.9c0-0.5-0.1-0.9-0.3-1.2c-0.2-0.3-0.4-0.6-0.8-0.8c-0.2-0.1-0.4-0.2-0.6-0.2
			c-0.2,0-0.5-0.1-0.9-0.1h-0.5v4.6h0.5c0.4,0,0.8,0,1-0.1c0.2,0,0.4-0.1,0.6-0.2c0.3-0.2,0.6-0.5,0.8-0.8
			C50.9,15.7,51,15.3,51,14.9z"/>
		<path class="st2" d="M62.1,15.9c0,0.9-0.3,1.6-0.8,2.1s-1.4,0.7-2.4,0.7s-1.9-0.2-2.4-0.7c-0.5-0.5-0.8-1.2-0.8-2.1v-4.6h1.9v4.5
			c0,0.5,0.1,0.9,0.3,1.1s0.6,0.4,1,0.4c0.5,0,0.8-0.1,1-0.4c0.2-0.2,0.3-0.6,0.3-1.1v-4.5h1.9V15.9z"/>
		<path class="st2" d="M71.9,18.5h-2.2l-1.6-2.4l-1.6,2.4h-2.1l2.6-3.7l-2.5-3.6h2.2l1.5,2.3l1.6-2.3h2.1l-2.5,3.5L71.9,18.5z"/>
		<path class="st2" d="M84.8,12.6h-2.3v5.9h-1.9v-5.9h-2.3v-1.4h6.4V12.6z"/>
		<path class="st2" d="M94.4,14.9c0,1.2-0.3,2.1-1,2.8c-0.7,0.7-1.6,1-2.8,1c-1.2,0-2.1-0.3-2.7-1c-0.7-0.7-1-1.6-1-2.8
			c0-1.2,0.3-2.1,1-2.8c0.7-0.7,1.6-1,2.7-1c1.2,0,2.1,0.3,2.7,1C94.1,12.8,94.4,13.7,94.4,14.9z M91.9,16.7
			c0.2-0.2,0.3-0.5,0.4-0.8c0.1-0.3,0.1-0.7,0.1-1.1c0-0.4-0.1-0.8-0.2-1.1s-0.2-0.6-0.4-0.7c-0.2-0.2-0.4-0.3-0.6-0.4
			c-0.2-0.1-0.4-0.1-0.7-0.1c-0.2,0-0.5,0-0.7,0.1c-0.2,0.1-0.4,0.2-0.6,0.4c-0.2,0.2-0.3,0.4-0.4,0.8c-0.1,0.3-0.2,0.7-0.2,1.1
			c0,0.4,0,0.8,0.1,1.1c0.1,0.3,0.2,0.6,0.4,0.7s0.4,0.3,0.6,0.4s0.4,0.1,0.7,0.1s0.5,0,0.7-0.1C91.6,17,91.8,16.9,91.9,16.7z"/>
		<path class="st2" d="M104.3,14.9c0,1.2-0.3,2.1-1,2.8c-0.7,0.7-1.6,1-2.8,1c-1.2,0-2.1-0.3-2.7-1c-0.7-0.7-1-1.6-1-2.8
			c0-1.2,0.3-2.1,1-2.8c0.7-0.7,1.6-1,2.7-1c1.2,0,2.1,0.3,2.7,1C104,12.8,104.3,13.7,104.3,14.9z M101.8,16.7
			c0.2-0.2,0.3-0.5,0.4-0.8c0.1-0.3,0.1-0.7,0.1-1.1c0-0.4-0.1-0.8-0.2-1.1s-0.2-0.6-0.4-0.7c-0.2-0.2-0.4-0.3-0.6-0.4
			c-0.2-0.1-0.4-0.1-0.7-0.1c-0.2,0-0.5,0-0.7,0.1c-0.2,0.1-0.4,0.2-0.6,0.4c-0.2,0.2-0.3,0.4-0.4,0.8c-0.1,0.3-0.2,0.7-0.2,1.1
			c0,0.4,0,0.8,0.1,1.1c0.1,0.3,0.2,0.6,0.4,0.7s0.4,0.3,0.6,0.4s0.4,0.1,0.7,0.1s0.5,0,0.7-0.1C101.5,17,101.7,16.9,101.8,16.7z"/>
		<path class="st2" d="M112.4,18.5h-5.2v-7.3h1.9v5.9h3.4V18.5z"/>
		<path class="st2" d="M121.7,18.5h-2.3l-2.2-2.9l-0.4,0.5v2.4h-1.9v-7.3h1.9v3.3l2.6-3.3h2.2l-2.8,3.4L121.7,18.5z"/>
		<path class="st2" d="M128,18.5h-4.3v-1.3h1.2v-4.7h-1.2v-1.3h4.3v1.3h-1.2v4.7h1.2V18.5z"/>
		<path class="st2" d="M136.6,12.6h-2.3v5.9h-1.9v-5.9h-2.3v-1.4h6.4V12.6z"/>
	</g>
</g>
</svg>
