<svg id="Слой_1" data-name="Слой 1" xmlns="http://www.w3.org/2000/svg" viewBox="0 0 101 28"><defs><style>.cls-1{fill:#1e1e32;}.cls-2{fill:#fff;}.cls-3{fill:#c9fd63;}</style></defs><title>logo</title><rect id="_Прямоугольник_" data-name="&lt;Прямоугольник&gt;" class="cls-1" width="101" height="28"/><path class="cls-2" d="M48.21,18.5H46.4l-3.09-5v5H41.59V11.23h2.25l2.65,4.16V11.23h1.72Z"/><path class="cls-2" d="M58.18,18.5H56.24L55.74,17H53.05l-.51,1.47H50.65l2.69-7.27h2.15Zm-2.89-2.8-.9-2.61L53.5,15.7Z"/><path class="cls-2" d="M67.24,18.5H65.43l-3.09-5v5H60.63V11.23h2.24l2.65,4.16V11.23h1.72Z"/><path class="cls-2" d="M77.56,14.87a3.79,3.79,0,0,1-1,2.76,4.23,4.23,0,0,1-5.51,0,3.79,3.79,0,0,1-1-2.76,3.8,3.8,0,0,1,1-2.77,4.22,4.22,0,0,1,5.5,0A3.77,3.77,0,0,1,77.56,14.87Zm-2.48,1.84a2.18,2.18,0,0,0,.4-.79,3.7,3.7,0,0,0,.13-1.06,3.59,3.59,0,0,0-.15-1.11,2.15,2.15,0,0,0-.39-.74,1.49,1.49,0,0,0-.58-.43,1.7,1.7,0,0,0-.67-.13,1.63,1.63,0,0,0-.67.13,1.37,1.37,0,0,0-.58.42,1.9,1.9,0,0,0-.4.75A3.73,3.73,0,0,0,72,14.87a3.52,3.52,0,0,0,.15,1.1,2.05,2.05,0,0,0,.4.75,1.46,1.46,0,0,0,.57.42,1.81,1.81,0,0,0,.69.14,1.72,1.72,0,0,0,.68-.14A1.6,1.6,0,0,0,75.08,16.71Z"/><path class="cls-2" d="M84.32,18.5H80.07V17.21h1.19V12.52H80.07V11.23h4.25v1.29H83.13v4.69h1.19Z"/><path class="cls-2" d="M94.12,14.87a3.54,3.54,0,0,1-.46,1.82,3.31,3.31,0,0,1-1.17,1.23,3.47,3.47,0,0,1-1.17.45,7.35,7.35,0,0,1-1.5.13H87.25V11.23h2.64a6.83,6.83,0,0,1,1.53.15,3.76,3.76,0,0,1,1.09.42A3.35,3.35,0,0,1,93.69,13,3.7,3.7,0,0,1,94.12,14.87Zm-1.94,0a2.6,2.6,0,0,0-.26-1.23,1.79,1.79,0,0,0-.83-.8,2.08,2.08,0,0,0-.58-.19,5.3,5.3,0,0,0-.91-.05h-.47v4.55h.47a5.7,5.7,0,0,0,1-.06,2.06,2.06,0,0,0,.61-.23,1.71,1.71,0,0,0,.75-.78A2.75,2.75,0,0,0,92.18,14.86Z"/><g id="_Группа_" data-name="&lt;Группа&gt;"><path id="_Контур_" data-name="&lt;Контур&gt;" class="cls-3" d="M25.62,21h6.57c0-2.76,1.38-4.4,1.38-7S32.19,9.8,32.19,7H8.08c0,2.77-1.38,4.41-1.38,7s1.38,4.24,1.38,7H25.62Z"/><rect id="_Прямоугольник_2" data-name="&lt;Прямоугольник&gt;" x="10.84" y="9.8" width="0.35" height="8.47"/><rect id="_Прямоугольник_3" data-name="&lt;Прямоугольник&gt;" x="11.45" y="9.8" width="0.09" height="8.47"/><rect id="_Прямоугольник_4" data-name="&lt;Прямоугольник&gt;" x="12.92" y="9.8" width="0.09" height="6.22"/><rect id="_Прямоугольник_5" data-name="&lt;Прямоугольник&gt;" x="15.86" y="9.8" width="0.09" height="6.22"/><rect id="_Прямоугольник_6" data-name="&lt;Прямоугольник&gt;" x="18.62" y="9.8" width="0.09" height="6.22"/><rect id="_Прямоугольник_7" data-name="&lt;Прямоугольник&gt;" x="20.09" y="9.8" width="0.26" height="6.22"/><rect id="_Прямоугольник_8" data-name="&lt;Прямоугольник&gt;" x="20.61" y="9.8" width="0.17" height="6.22"/><rect id="_Прямоугольник_9" data-name="&lt;Прямоугольник&gt;" x="20.96" y="9.8" width="0.17" height="6.22"/><rect id="_Прямоугольник_10" data-name="&lt;Прямоугольник&gt;" x="23.72" y="9.8" width="0.17" height="6.22"/><rect id="_Прямоугольник_11" data-name="&lt;Прямоугольник&gt;" x="28.73" y="9.8" width="0.09" height="8.47"/><rect id="_Прямоугольник_12" data-name="&lt;Прямоугольник&gt;" x="23.03" y="9.8" width="0.26" height="6.22"/><rect id="_Прямоугольник_13" data-name="&lt;Прямоугольник&gt;" x="21.39" y="9.8" width="0.6" height="6.22"/><rect id="_Прямоугольник_14" data-name="&lt;Прямоугольник&gt;" x="22.25" y="9.8" width="0.52" height="6.22"/><rect id="_Прямоугольник_15" data-name="&lt;Прямоугольник&gt;" x="24.33" y="9.8" width="0.52" height="6.22"/><rect id="_Прямоугольник_16" data-name="&lt;Прямоугольник&gt;" x="25.62" y="9.8" width="0.69" height="6.22"/><rect id="_Прямоугольник_17" data-name="&lt;Прямоугольник&gt;" x="26.49" y="9.8" width="0.35" height="6.22"/><rect id="_Прямоугольник_18" data-name="&lt;Прямоугольник&gt;" x="27.09" y="9.8" width="0.26" height="6.22"/><rect id="_Прямоугольник_19" data-name="&lt;Прямоугольник&gt;" x="27.96" y="9.8" width="0.52" height="8.47"/><rect id="_Прямоугольник_20" data-name="&lt;Прямоугольник&gt;" x="29.08" y="9.8" width="0.35" height="8.47"/><rect id="_Прямоугольник_21" data-name="&lt;Прямоугольник&gt;" x="25.02" y="9.8" width="0.35" height="6.22"/><rect id="_Прямоугольник_22" data-name="&lt;Прямоугольник&gt;" x="16.38" y="9.8" width="0.17" height="6.22"/><rect id="_Прямоугольник_23" data-name="&lt;Прямоугольник&gt;" x="17.84" y="9.8" width="0.17" height="6.22"/><rect id="_Прямоугольник_24" data-name="&lt;Прямоугольник&gt;" x="11.97" y="9.8" width="0.52" height="8.47"/><rect id="_Прямоугольник_25" data-name="&lt;Прямоугольник&gt;" x="13.44" y="9.8" width="0.35" height="6.22"/><rect id="_Прямоугольник_26" data-name="&lt;Прямоугольник&gt;" x="16.98" y="9.8" width="0.26" height="6.22"/><rect id="_Прямоугольник_27" data-name="&lt;Прямоугольник&gt;" x="14.91" y="9.8" width="0.35" height="6.22"/><rect id="_Прямоугольник_28" data-name="&lt;Прямоугольник&gt;" x="14.21" y="9.8" width="0.43" height="6.22"/><rect id="_Прямоугольник_29" data-name="&lt;Прямоугольник&gt;" x="18.97" y="9.8" width="0.52" height="6.22"/><g id="_Группа_2" data-name="&lt;Группа&gt;"><path id="_Составной_контур_" data-name="&lt;Составной контур&gt;" d="M14.49,19.31,14,18l-.1-.28v1.61h-.32V17.09H14l.51,1.33.09.26V17.09h.32v2.22Z"/><path id="_Составной_контур_2" data-name="&lt;Составной контур&gt;" d="M16.55,19.31v-.22l-.1.1-.11.09-.13,0-.15,0a.42.42,0,0,1-.2,0,.3.3,0,0,1-.14-.11.39.39,0,0,1-.09-.17.66.66,0,0,1,0-.21.56.56,0,0,1,.05-.23.46.46,0,0,1,.13-.18.66.66,0,0,1,.22-.12,1.47,1.47,0,0,1,.32,0h.18v-.1a.41.41,0,0,0,0-.12.19.19,0,0,0,0-.09.18.18,0,0,0-.09-.06.3.3,0,0,0-.14,0,1.07,1.07,0,0,0-.25,0,1.73,1.73,0,0,0-.24.1v-.33l.24-.08a.86.86,0,0,1,.28,0,1.11,1.11,0,0,1,.28,0,.45.45,0,0,1,.19.11.54.54,0,0,1,.11.18,1,1,0,0,1,0,.26v1.18Zm-.05-.76h-.21a.34.34,0,0,0-.15,0,.31.31,0,0,0-.1.05.41.41,0,0,0,0,.09.16.16,0,0,0,0,.1A.21.21,0,0,0,16,19a.23.23,0,0,0,.15.05.24.24,0,0,0,.15-.06,1,1,0,0,0,.17-.18Z"/><path id="_Составной_контур_3" data-name="&lt;Составной контур&gt;" d="M18.52,19.31,18,18l-.11-.28v1.61H17.6V17.09H18l.5,1.33.09.26V17.09h.32v2.22Z"/><path id="_Составной_контур_4" data-name="&lt;Составной контур&gt;" d="M21,18.19a1.85,1.85,0,0,1-.05.49,1.24,1.24,0,0,1-.14.37.83.83,0,0,1-.24.22.55.55,0,0,1-.31.08.68.68,0,0,1-.29-.06.62.62,0,0,1-.22-.21,1.27,1.27,0,0,1-.15-.35,2.62,2.62,0,0,1-.05-.52,2.38,2.38,0,0,1,.05-.49,1,1,0,0,1,.15-.37.6.6,0,0,1,.23-.22.57.57,0,0,1,.32-.08.67.67,0,0,1,.28.06.55.55,0,0,1,.22.21,1,1,0,0,1,.15.35A2.54,2.54,0,0,1,21,18.19Zm-1.1,0v.12l.7-.6a.58.58,0,0,0-.13-.25.25.25,0,0,0-.19-.08.2.2,0,0,0-.15.05.33.33,0,0,0-.12.14,1.34,1.34,0,0,0-.08.26A1.86,1.86,0,0,0,19.9,18.2Zm.75,0v-.11l-.69.6a.54.54,0,0,0,.12.24.26.26,0,0,0,.2.08.19.19,0,0,0,.14-.05.31.31,0,0,0,.12-.15.73.73,0,0,0,.08-.25A1.86,1.86,0,0,0,20.65,18.2Z"/><path id="_Составной_контур_5" data-name="&lt;Составной контур&gt;" d="M21.85,18.57V18.2h.88v.37Z"/><path id="_Составной_контур_6" data-name="&lt;Составной контур&gt;" d="M24.19,19.31v-1.8l-.41.27-.12-.33.59-.38h.3v2.24Z"/><path id="_Составной_контур_7" data-name="&lt;Составной контур&gt;" d="M27,18.17a2.26,2.26,0,0,1-.05.47,1.2,1.2,0,0,1-.17.36.73.73,0,0,1-.29.23.93.93,0,0,1-.42.08h-.48V17.09h.55a1.08,1.08,0,0,1,.38.06.66.66,0,0,1,.27.2.92.92,0,0,1,.16.33A2.31,2.31,0,0,1,27,18.17Zm-.38,0a1.57,1.57,0,0,0,0-.32.67.67,0,0,0-.08-.24.33.33,0,0,0-.16-.15.43.43,0,0,0-.24,0H26V19h.16a.46.46,0,0,0,.39-.18A1,1,0,0,0,26.66,18.2Z"/></g></g></svg>