<svg id="Слой_1" data-name="Слой 1" xmlns="http://www.w3.org/2000/svg" viewBox="0 0 100 28"><defs><style>.cls-1{fill:#00b462;}.cls-2{font-size:10px;fill:#fff;font-family:Verdana-Bold, Verdana;font-weight:700;letter-spacing:0.14em;}.cls-3{fill:#1e1e1e;}.cls-4{fill:#fefefe;}.cls-5{fill:#00b362;}</style></defs><title>logo</title><rect id="_Прямоугольник_" data-name="&lt;Прямоугольник&gt;" class="cls-1" y="0.07" width="100" height="28"/><g id="_Группа_" data-name="&lt;Группа&gt;"><text class="cls-2" transform="translate(27.67 18.5)">NOTIFLIX</text></g><g id="_Группа_2" data-name="&lt;Группа&gt;"><path id="_Контур_" data-name="&lt;Контур&gt;" class="cls-3" d="M21.53,12.14v4.1a1.1,1.1,0,0,1-1.12,1.16l-3.59.29a.68.68,0,0,0-.56.42c-.36.75-.74,1.5-1.1,2.26a1.09,1.09,0,0,1-1,.66.84.84,0,0,1-.85-.49c-.34-.63-.69-1.26-1-1.9a.83.83,0,0,0-.89-.51l-3.3.27H8c-1,.08-1.31-.23-1.31-1.22V9.35A1.13,1.13,0,0,1,7.88,8.06l4.46-.36,6.85-.56L20.47,7a.9.9,0,0,1,1.06,1Z"/><path id="_Контур_2" data-name="&lt;Контур&gt;" class="cls-4" d="M13.63,13.57v2.06a.52.52,0,0,1-.16.44.41.41,0,0,1-.41.06.33.33,0,0,1-.21-.3,1.93,1.93,0,0,1,0-.24V11.93a2.2,2.2,0,0,0-.2-1,1.24,1.24,0,0,0-1.13-.74,5.14,5.14,0,0,0-1.11.07,1.72,1.72,0,0,0-1.48,1.84c0,1.29,0,2.58,0,3.87a.7.7,0,0,1-.05.35.39.39,0,0,1-.45.22.34.34,0,0,1-.29-.36c0-1.42,0-2.85,0-4.27a2.42,2.42,0,0,1,2.32-2.43c.31,0,.62-.06.92-.07a2,2,0,0,1,2.22,2.07c0,.7,0,1.4,0,2.1Z"/><path id="_Контур_3" data-name="&lt;Контур&gt;" class="cls-4" d="M14.69,15.56a.54.54,0,0,1,.16-.35l1.94-2.59a.24.24,0,0,0,0-.36c-.67-.78-1.33-1.56-2-2.35a.4.4,0,0,1,.15-.67.38.38,0,0,1,.48.15L17.2,11.5c.22.25.22.25.4,0l1.76-2.4a.52.52,0,0,1,.43-.27.31.31,0,0,1,.3.44,1.4,1.4,0,0,1-.16.26l-1.88,2.59c-.12.16-.14.26,0,.42.64.75,1.27,1.51,1.9,2.26a.4.4,0,0,1,.14.41.39.39,0,0,1-.29.3.41.41,0,0,1-.44-.17c-.59-.71-1.19-1.41-1.78-2.11-.22-.26-.17-.23-.36,0l-1.79,2.4a.54.54,0,0,1-.3.24A.34.34,0,0,1,14.69,15.56Z"/><path id="_Контур_4" data-name="&lt;Контур&gt;" class="cls-5" d="M10.12,15.85a.81.81,0,0,1,.82-.83.67.67,0,0,1,.7.67.82.82,0,0,1-.81.85A.67.67,0,0,1,10.12,15.85Z"/></g></svg>