<?xml version="1.0" encoding="utf-8"?>
<!-- Generator: Adobe Illustrator 22.1.0, SVG Export Plug-In . SVG Version: 6.00 Build 0)  -->
<svg version="1.1" id="Слой_1" xmlns="http://www.w3.org/2000/svg" xmlns:xlink="http://www.w3.org/1999/xlink" x="0px" y="0px"
	 viewBox="0 0 87 28" style="enable-background:new 0 0 87 28;" xml:space="preserve">
<style type="text/css">
	.st0{fill:#0051CD;}
	.st1{fill:#51C7C4;}
	.st2{fill:#FFFFFF;}
	.st3{fill:#774BBB;}
	.st4{fill:#5A29E4;}
	.st5{fill:#640434;}
	.st6{fill:#282828;}
	.st7{fill:#ECD53F;}
</style>
<rect id="XMLID_89_" y="0.1" class="st1" width="87" height="28"/>
<path id="XMLID_82_" class="st2" d="M13.7,7.1c-3.9,0-7,3.1-7,7s3.1,7,7,7s7-3.1,7-7S17.6,7.1,13.7,7.1z M16.9,13.5
	c-0.2,0.2-0.4,0.4-0.6,0.5c-0.7,0.6-1.3,1.2-2,1.9c-0.9,0.9-1.8,1.7-2.7,2.6c-0.1,0.1-0.1,0.1-0.2,0c-0.1-0.1,0-0.1,0-0.2
	c0.4-0.5,0.7-1,1.1-1.5c0.4-0.6,0.9-1.3,1.4-1.9c0,0,0,0,0,0c0-0.1,0.1-0.1,0.1-0.2c0-0.1-0.1-0.1-0.2-0.1c-0.5,0-1,0-1.6,0
	s-1,0-1.6,0c-0.1,0-0.1,0-0.1,0c0-0.1,0-0.1,0-0.2c0.4-0.4,0.8-0.8,1.2-1.2c0.3-0.3,0.6-0.6,0.9-0.9c0.8-0.8,1.7-1.7,2.5-2.5
	c0.1-0.1,0.1-0.1,0.2-0.1c0.1,0.1,0,0.1,0,0.2c-0.5,0.9-1,1.8-1.4,2.6c-0.1,0.2-0.2,0.3-0.3,0.5c-0.1,0.2-0.1,0.2,0.1,0.2
	c1,0,1.9,0,2.9,0c0,0,0.1,0,0.1,0c0.1,0,0.1,0,0.1,0.1C16.9,13.4,16.9,13.4,16.9,13.5z"/>
<g id="XMLID_468_">
	<g>
		<path class="st2" d="M30.9,18.6c-0.5,0-1-0.1-1.5-0.2s-0.9-0.4-1.2-0.7s-0.6-0.7-0.8-1.2s-0.3-1-0.3-1.6c0-0.6,0.1-1.1,0.3-1.6
			s0.4-0.9,0.8-1.2c0.3-0.3,0.7-0.6,1.2-0.7s1-0.3,1.5-0.3c0.3,0,0.6,0,0.8,0.1s0.5,0.1,0.7,0.1c0.2,0.1,0.4,0.1,0.6,0.2
			s0.3,0.1,0.5,0.2v1.8h-0.2c-0.1-0.1-0.2-0.2-0.3-0.3s-0.3-0.2-0.5-0.3c-0.2-0.1-0.4-0.2-0.6-0.3s-0.4-0.1-0.7-0.1
			c-0.3,0-0.5,0-0.8,0.1c-0.2,0.1-0.5,0.2-0.7,0.4c-0.2,0.2-0.3,0.4-0.5,0.7c-0.1,0.3-0.2,0.7-0.2,1.1c0,0.5,0.1,0.8,0.2,1.1
			c0.1,0.3,0.3,0.5,0.5,0.7c0.2,0.2,0.4,0.3,0.7,0.4s0.5,0.1,0.7,0.1c0.2,0,0.5,0,0.7-0.1c0.2-0.1,0.4-0.2,0.6-0.3
			c0.2-0.1,0.3-0.2,0.4-0.3c0.1-0.1,0.2-0.2,0.3-0.3h0.2V18c-0.2,0.1-0.4,0.2-0.5,0.2s-0.3,0.1-0.5,0.2c-0.2,0.1-0.5,0.1-0.7,0.2
			S31.2,18.6,30.9,18.6z"/>
		<path class="st2" d="M42.7,18.5h-1.9v-3.2h-2.8v3.2h-1.9v-7.3h1.9v2.7h2.8v-2.7h1.9V18.5z"/>
		<path class="st2" d="M52.7,18.5h-1.9L50.3,17h-2.7l-0.5,1.5h-1.9l2.7-7.3H50L52.7,18.5z M49.8,15.7l-0.9-2.6L48,15.7H49.8z"/>
		<path class="st2" d="M62,18.5h-2.3l-2.2-2.9L57,16.1v2.4h-1.9v-7.3H57v3.3l2.6-3.3h2.2L59,14.6L62,18.5z"/>
		<path class="st2" d="M71.3,18.5H69l-2-2.7h-0.9v2.7h-1.9v-7.3h3.1c0.4,0,0.8,0,1.1,0.1s0.6,0.2,0.9,0.3c0.3,0.2,0.5,0.4,0.7,0.6
			c0.2,0.3,0.2,0.6,0.2,1c0,0.5-0.1,1-0.4,1.3c-0.3,0.3-0.6,0.6-1.1,0.8L71.3,18.5z M68.4,13.5c0-0.2,0-0.3-0.1-0.5
			s-0.2-0.2-0.4-0.3c-0.1-0.1-0.3-0.1-0.4-0.1s-0.4,0-0.6,0h-0.7v2h0.6c0.3,0,0.5,0,0.8,0s0.4-0.1,0.5-0.2c0.1-0.1,0.2-0.2,0.3-0.3
			C68.3,13.8,68.4,13.7,68.4,13.5z"/>
		<path class="st2" d="M80.2,18.5h-1.9L77.8,17h-2.7l-0.5,1.5h-1.9l2.7-7.3h2.2L80.2,18.5z M77.3,15.7l-0.9-2.6l-0.9,2.6H77.3z"/>
	</g>
</g>
</svg>
